<svg xmlns="http://www.w3.org/2000/svg" viewBox="0 0 156 16" id="premium-badge-xxxsmall" aria-hidden="true" role="none" data-supported-dps="78x8" width="78" height="8">
  <path d="M15.12 15.12A3 3 0 0016 13V3a3 3 0 00-3-3H3A3 3 0 00.88.88z" fill="#f8c77e"/>
  <path d="M.88.88A3 3 0 000 3v10a3 3 0 003 3h10a3 3 0 002.12-.88z" fill="#e7a33e"/>
  <path d="M33.41.2H28v15.6h2.9v-5.48h2.47c3.52 0 5.37-2.3 5.37-5.08S37 .2 33.41.2zM33 7.87h-2.1v-5.2H33a2.46 2.46 0 012.8 2.59A2.49 2.49 0 0133 7.87zm24.25-3C57.29 2.21 55.35.2 52.06.2H46v15.6h2.89V9.6h2.27l3.66 6.2h3.3l-4-6.62a4.35 4.35 0 003.17-4.3zm-5.51 2.35h-2.85V2.67h2.74c1.65 0 2.68.85 2.68 2.28s-.92 2.27-2.57 2.27zM65.38.2h11.45v2.5h-8.56v3.92h5.44v2.47h-5.44v4.21h8.56v2.5H65.38zm30.54 0h4v15.6h-2.9v-12l-3.54 7.74h-2.62l-3.52-7.69v12h-2.83V.2h4.23l3.48 8.05zm12.72 0h2.89v15.6h-2.89zm20.48 0H132V11c0 2.8-2 5-5.92 5s-5.93-2.21-5.93-5V.2H123v10.59c0 1.42.89 2.67 3 2.67s3.07-1.25 3.07-2.67zM156 .2v15.6h-2.9v-12l-3.54 7.74h-2.67l-3.52-7.74v12h-2.83V.2h4.23l3.48 8.05 3.69-8z" opacity=".9"/>
</svg>
